<svg xmlns="http://www.w3.org/2000/svg" viewBox="0 0 512 512" xmlns:c2pa="http://c2pa.org/manifest"><metadata><c2pa:manifest>AAAWgmp1bWIAAAAeanVtZGMycGEAEQAQgAAAqgA4m3EDYzJwYQAAABZcanVtYgAAAEdqdW1kYzJtYQARABCAAACqADibcQN1cm46YzJwYTplZDY4MDhiNS04MzQyLTQyNWMtODZmYi0xODNkYWY0YzkwNGUAAAADl2p1bWIAAAApanVtZGMyYXMAEQAQgAAAqgA4m3EDYzJwYS5hc3NlcnRpb25zAAAAALxqdW1iAAAARGp1bWRjYm9yABEAEIAAAKoAOJtxE2MycGEuaW5ncmVkaWVudC52MwAAAAAYYzJzaDFOIqy9mwh0WeMpE2nLhvUAAABwY2JvcqNpZGM6Zm9ybWF0bWltYWdlL3N2Zyt4bWxqaW5zdGFuY2VJRHgseG1wOmlpZDoxNmQ2YmNjYS00MGE5LTQzZjAtOTkwNC0wNjlhNWU1N2M2NDlscmVsYXRpb25zaGlwaHBhcmVudE9mAAAB4mp1bWIAAABBanVtZGNib3IAEQAQgAAAqgA4m3ETYzJwYS5hY3Rpb25zLnYyAAAAABhjMnNopvus4Ua/KUFMvRfGz6zUdQAAAZljYm9yomdhY3Rpb25zgqJmYWN0aW9ua2MycGEub3BlbmVkanBhcmFtZXRlcnOha2luZ3JlZGllbnRzgaJjdXJseC1zZWxmI2p1bWJmPWMycGEuYXNzZXJ0aW9ucy9jMnBhLmluZ3JlZGllbnQudjNkaGFzaFggjssoNbRFjF04ROWXRJBA/f8ctDBOzs37FcQ/Y9J+9lekZmFjdGlvbngdY29tLmFudGhyb3BpYy5jbGF1ZGUucHJvdmlkZWRqcGFyYW1ldGVyc6F4H2NvbS5hbnRocm9waWMub3JpZ2luLWNvbmZpZGVuY2VndW5rbm93bmtkZXNjcmlwdGlvbnhmQ2xhdWRlIHByb3ZpZGVkIHRoaXMgZmlsZSBhdCB0aGUgcmVxdWVzdCBvZiBhIHVzZXIgYW5kIG1heSBoYXZlIGNyZWF0ZWQgb3IgbW9kaWZpZWQgdGhlIGZpbGUgY29udGVudHMubXNvZnR3YXJlQWdlbnShZG5hbWVmQ2xhdWRlcmFsbEFjdGlvbnNJbmNsdWRlZPUAAADIanVtYgAAAEBqdW1kY2JvcgARABCAAACqADibcRNjMnBhLmhhc2guZGF0YQAAAAAYYzJzaBo8059ODuTcnDCrza7e+SIAAACAY2JvcqVjYWxnZnNoYTI1NmNwYWRNAAAAAAAAAAAAAAAAAGRoYXNoWCD7rCxHIDjIo4AhInZGdOMm1Z25ElNTR5LtONGjTENaMmRuYW1lbmp1bWJmIG1hbmlmZXN0amV4Y2x1c2lvbnOBomVzdGFydBh9Zmxlbmd0aBkeBAAAAj5qdW1iAAAAJ2p1bWRjMmNsABEAEIAAAKoAOJtxA2MycGEuY2xhaW0udjIAAAACD2Nib3KlY2FsZ2ZzaGEyNTZpc2lnbmF0dXJleE1zZWxmI2p1bWJmPS9jMnBhL3VybjpjMnBhOmVkNjgwOGI1LTgzNDItNDI1Yy04NmZiLTE4M2RhZjRjOTA0ZS9jMnBhLnNpZ25hdHVyZWppbnN0YW5jZUlEeCx4bXA6aWlkOmE1OWMzMzhhLWZjNGEtNDRmOC05N2Y2LTM3MmNjMDUwOGJjZXJjcmVhdGVkX2Fzc2VydGlvbnODomN1cmx4LXNlbGYjanVtYmY9YzJwYS5hc3NlcnRpb25zL2MycGEuaW5ncmVkaWVudC52M2RoYXNoWCCOyyg1tEWMXThE5ZdEkED9/xy0ME7OzfsVxD9j0n72V6JjdXJseCpzZWxmI2p1bWJmPWMycGEuYXNzZXJ0aW9ucy9jMnBhLmFjdGlvbnMudjJkaGFzaFggt65acnRVW9ZnzGRVVi0yA2tI2d7S4j5ECLJ5ANd0IHyiY3VybHgpc2VsZiNqdW1iZj1jMnBhLmFzc2VydGlvbnMvYzJwYS5oYXNoLmRhdGFkaGFzaFgg38H/EOmyurAEi3mDStvoY5U1dPdQxwZ3d18mgH4AfFN0Y2xhaW1fZ2VuZXJhdG9yX2luZm+jZG5hbWVvQW50aHJvcGljIEZpbGVzZ3ZlcnNpb25lMS4wLjBrc3BlY1ZlcnNpb25lMi40LjAAABA4anVtYgAAAChqdW1kYzJjcwARABCAAACqADibcQNjMnBhLnNpZ25hdHVyZQAAABAIY2JvctKEWQISogEmGCFZAgowggIGMIIBjaADAgECAhRA5aAK7sI50L64g/oGQgU9Z1UTADAKBggqhkjOPQQDAzBJMRcwFQYDVQQKEw5BbnRocm9waWMsIFBCQzEuMCwGA1UEAxMlQW50aHJvcGljIENvbnRlbnQgQ3JlZGVudGlhbHMgUm9vdCBDQTAeFw0yNjA4MDcxODQzNTZaFw0yODA4MDYxOTQzNTZaMEQxFzAVBgNVBAoTDkFudGhyb3BpYywgUEJDMSkwJwYDVQQDEyBBbnRocm9waWMgQ2xhdWRlIENvbnRlbnQgU2lnbmluZzBZMBMGByqGSM49AgEGCCqGSM49AwEHA0IABJh6CmvLUBgFFNU0vUKlOVtE6djd17L5SuwX0LemFisBM3dkd/3cyjxFA3Qo5S46fX0/ihY0VZ7mfb9KF703t5OjWDBWMA4GA1UdDwEB/wQEAwIHgDAVBgNVHSUEDjAMBgorBgEEAYPoXgIBMAwGA1UdEwEB/wQCMAAwHwYDVR0jBBgwFoAUzlHiBIFOZFsj+OPEz5o+nMHXXMIwCgYIKoZIzj0EAwMDZwAwZAIwMXMdFJ4BetLLVY7ORuE9noqbbAZOZn/aArXyTwFAZfKrPzxF2vPoJNf1+UCdg1XGAjBwX1zd9WGqYkqmL5SFqw1QySjr1zJfpJM9+1rdDwSPLMOPOjKuiXjoU/pUUeG9RwmhY3BhZFkNngAAAAAAAAAAAAAAAAAAAAAAAAAAAAAAAAAAAAAAAAAAAAAAAAAAAAAAAAAAAAAAAAAAAAAAAAAAAAAAAAAAAAAAAAAAAAAAAAAAAAAAAAAAAAAAAAAAAAAAAAAAAAAAAAAAAAAAAAAAAAAAAAAAAAAAAAAAAAAAAAAAAAAAAAAAAAAAAAAAAAAAAAAAAAAAAAAAAAAAAAAAAAAAAAAAAAAAAAAAAAAAAAAAAAAAAAAAAAAAAAAAAAAAAAAAAAAAAAAAAAAAAAAAAAAAAAAAAAAAAAAAAAAAAAAAAAAAAAAAAAAAAAAAAAAAAAAAAAAAAAAAAAAAAAAAAAAAAAAAAAAAAAAAAAAAAAAAAAAAAAAAAAAAAAAAAAAAAAAAAAAAAAAAAAAAAAAAAAAAAAAAAAAAAAAAAAAAAAAAAAAAAAAAAAAAAAAAAAAAAAAAAAAAAAAAAAAAAAAAAAAAAAAAAAAAAAAAAAAAAAAAAAAAAAAAAAAAAAAAAAAAAAAAAAAAAAAAAAAAAAAAAAAAAAAAAAAAAAAAAAAAAAAAAAAAAAAAAAAAAAAAAAAAAAAAAAAAAAAAAAAAAAAAAAAAAAAAAAAAAAAAAAAAAAAAAAAAAAAAAAAAAAAAAAAAAAAAAAAAAAAAAAAAAAAAAAAAAAAAAAAAAAAAAAAAAAAAAAAAAAAAAAAAAAAAAAAAAAAAAAAAAAAAAAAAAAAAAAAAAAAAAAAAAAAAAAAAAAAAAAAAAAAAAAAAAAAAAAAAAAAAAAAAAAAAAAAAAAAAAAAAAAAAAAAAAAAAAAAAAAAAAAAAAAAAAAAAAAAAAAAAAAAAAAAAAAAAAAAAAAAAAAAAAAAAAAAAAAAAAAAAAAAAAAAAAAAAAAAAAAAAAAAAAAAAAAAAAAAAAAAAAAAAAAAAAAAAAAAAAAAAAAAAAAAAAAAAAAAAAAAAAAAAAAAAAAAAAAAAAAAAAAAAAAAAAAAAAAAAAAAAAAAAAAAAAAAAAAAAAAAAAAAAAAAAAAAAAAAAAAAAAAAAAAAAAAAAAAAAAAAAAAAAAAAAAAAAAAAAAAAAAAAAAAAAAAAAAAAAAAAAAAAAAAAAAAAAAAAAAAAAAAAAAAAAAAAAAAAAAAAAAAAAAAAAAAAAAAAAAAAAAAAAAAAAAAAAAAAAAAAAAAAAAAAAAAAAAAAAAAAAAAAAAAAAAAAAAAAAAAAAAAAAAAAAAAAAAAAAAAAAAAAAAAAAAAAAAAAAAAAAAAAAAAAAAAAAAAAAAAAAAAAAAAAAAAAAAAAAAAAAAAAAAAAAAAAAAAAAAAAAAAAAAAAAAAAAAAAAAAAAAAAAAAAAAAAAAAAAAAAAAAAAAAAAAAAAAAAAAAAAAAAAAAAAAAAAAAAAAAAAAAAAAAAAAAAAAAAAAAAAAAAAAAAAAAAAAAAAAAAAAAAAAAAAAAAAAAAAAAAAAAAAAAAAAAAAAAAAAAAAAAAAAAAAAAAAAAAAAAAAAAAAAAAAAAAAAAAAAAAAAAAAAAAAAAAAAAAAAAAAAAAAAAAAAAAAAAAAAAAAAAAAAAAAAAAAAAAAAAAAAAAAAAAAAAAAAAAAAAAAAAAAAAAAAAAAAAAAAAAAAAAAAAAAAAAAAAAAAAAAAAAAAAAAAAAAAAAAAAAAAAAAAAAAAAAAAAAAAAAAAAAAAAAAAAAAAAAAAAAAAAAAAAAAAAAAAAAAAAAAAAAAAAAAAAAAAAAAAAAAAAAAAAAAAAAAAAAAAAAAAAAAAAAAAAAAAAAAAAAAAAAAAAAAAAAAAAAAAAAAAAAAAAAAAAAAAAAAAAAAAAAAAAAAAAAAAAAAAAAAAAAAAAAAAAAAAAAAAAAAAAAAAAAAAAAAAAAAAAAAAAAAAAAAAAAAAAAAAAAAAAAAAAAAAAAAAAAAAAAAAAAAAAAAAAAAAAAAAAAAAAAAAAAAAAAAAAAAAAAAAAAAAAAAAAAAAAAAAAAAAAAAAAAAAAAAAAAAAAAAAAAAAAAAAAAAAAAAAAAAAAAAAAAAAAAAAAAAAAAAAAAAAAAAAAAAAAAAAAAAAAAAAAAAAAAAAAAAAAAAAAAAAAAAAAAAAAAAAAAAAAAAAAAAAAAAAAAAAAAAAAAAAAAAAAAAAAAAAAAAAAAAAAAAAAAAAAAAAAAAAAAAAAAAAAAAAAAAAAAAAAAAAAAAAAAAAAAAAAAAAAAAAAAAAAAAAAAAAAAAAAAAAAAAAAAAAAAAAAAAAAAAAAAAAAAAAAAAAAAAAAAAAAAAAAAAAAAAAAAAAAAAAAAAAAAAAAAAAAAAAAAAAAAAAAAAAAAAAAAAAAAAAAAAAAAAAAAAAAAAAAAAAAAAAAAAAAAAAAAAAAAAAAAAAAAAAAAAAAAAAAAAAAAAAAAAAAAAAAAAAAAAAAAAAAAAAAAAAAAAAAAAAAAAAAAAAAAAAAAAAAAAAAAAAAAAAAAAAAAAAAAAAAAAAAAAAAAAAAAAAAAAAAAAAAAAAAAAAAAAAAAAAAAAAAAAAAAAAAAAAAAAAAAAAAAAAAAAAAAAAAAAAAAAAAAAAAAAAAAAAAAAAAAAAAAAAAAAAAAAAAAAAAAAAAAAAAAAAAAAAAAAAAAAAAAAAAAAAAAAAAAAAAAAAAAAAAAAAAAAAAAAAAAAAAAAAAAAAAAAAAAAAAAAAAAAAAAAAAAAAAAAAAAAAAAAAAAAAAAAAAAAAAAAAAAAAAAAAAAAAAAAAAAAAAAAAAAAAAAAAAAAAAAAAAAAAAAAAAAAAAAAAAAAAAAAAAAAAAAAAAAAAAAAAAAAAAAAAAAAAAAAAAAAAAAAAAAAAAAAAAAAAAAAAAAAAAAAAAAAAAAAAAAAAAAAAAAAAAAAAAAAAAAAAAAAAAAAAAAAAAAAAAAAAAAAAAAAAAAAAAAAAAAAAAAAAAAAAAAAAAAAAAAAAAAAAAAAAAAAAAAAAAAAAAAAAAAAAAAAAAAAAAAAAAAAAAAAAAAAAAAAAAAAAAAAAAAAAAAAAAAAAAAAAAAAAAAAAAAAAAAAAAAAAAAAAAAAAAAAAAAAAAAAAAAAAAAAAAAAAAAAAAAAAAAAAAAAAAAAAAAAAAAAAAAAAAAAAAAAAAAAAAAAAAAAAAAAAAAAAAAAAAAAAAAAAAAAAAAAAAAAAAAAAAAAAAAAAAAAAAAAAAAAAAAAAAAAAAAAAAAAAAAAAAAAAAAAAAAAAAAAAAAAAAAAAAAAAAAAAAAAAAAAAAAAAAAAAAAAAAAAAAAAAAAAAAAAAAAAAAAAAAAAAAAAAAAAAAAAAAAAAAAAAAAAAAAAAAAAAAAAAAAAAAAAAAAAAAAAAAAAAAAAAAAAAAAAAAAAAAAAAAAAAAAAAAAAAAAAAAAAAAAAAAAAAAAAAAAAAAAAAAAAAAAAAAAAAAAAAAAAAAAAAAAAAAAAAAAAAAAAAAAAAAAAAAAAAAAAAAAAAAAAAAAAAAAAAAAAAAAAAAAAAAAAAAAAAAAAAAAAAAAAAAAAAAAAAAAAAAAAAAAAAAAAAAAAAAAAAAAAAAAAAAAAAAAAAAAAAAAAAAAAAAAAAAAAAAAAAAAAAAAAAAAAAAAAAAAAAAAAAAAAAAAAAAAAAAAAAAAAAAAAAAAAAAAAAAAAAAAAAAAAAAAAAAAAAAAAAAAAAAAAAAAAAAAAAAAAAAAAAAAAAAAAAAAAAAAAAAAAAAAAAAAAAAAAAAAAAAAAAAAAAAAAAAAAAAAAAAAAAAAAAAAAAAAAAAAAAAAAAAAAAAAAAAAAAAAAAAAAAAAAAAAAAAAAAAAAAAAAAAAAAAAAAAAAAAAAAAAAAAAAAAAAAAAAAAAAAAAAAAAAAAAAAAAAAAAAAAAAAAAAAAAAAAAAAAAAAAAAAAAAAAAAAAAAAAAAAAAAAAAAAAAAAAAAAAAAAAAAAAAAAAAAAAAAAAAAAAAAAAAAAAAAAAAAAAAAAAAAAAAAAAAAAAAAAAAAAAAAAAAAAAAAAAAAAAAAAAAAAAAAAAAAAAAAAAAAAAAAAAAAAAAAAAAAAAAAAAAAAAAAAAAAAAAAAAAAAAAAAAAAAAAAAAAAAAAAAAAAAAAAAAAAAAAAAAAAAAAAAAAAAAAAAAAAAAAAAAAAAAAAAAAAAAAAAAAAAAAAAAAAAAAAAAAAAAAAAAAAAAAAAAAAAAAAAAAAAAAAAAAAAAAAAAAAAAAAAAAAAAAAAAAAAAAAAAAAAAAAAAAAAAAAAAAAAAAAAAAAAAAAAAAAAAAAAAAAAAAAAAAAAAAAAAAAAAAAAAAAAAAAAAAAAAAAAAAAAAAAAAAAAAAAAAAAAAAAAAAAAAAAAAAAAAAAAAAAAAAAAAAAAAAAAAAAAAAAAAAAAAAAAAAAAAAAAAAAAAAAAAAAAAAAAAAAAAAAAAAAAAAAAAAAAAAAAAAAAAAAAAAAAAAAAAAAAAAAAAAAAAAAAAAAAAAAAAAAAAAAAAAAAAAAAAAAAAAAAAAAAAAAAAAAAAAAAAAAAAAAAAAAAAAAAAAAAAAAAAAAAAAAAAAAAAAAAAAAAAAAAAAAAAAAAAAAAAAAAAAAAAAAAAAAAAAAAAAAAAAAAAAAAAAAAAAAAAAAAAAAAAAAAAAAAAAAAAAAAAAAAAAAAAAAAAAAAAAAAAAAAAAAAAAAAAAAAAAAAAAAAAAAAAAAAAAAAAAAAAAAAPZYQBZmbdou5UePedUe4rXTNcRMQD0XxQH1G5DHohkvvlPqnkVC0r5ICYImE9Gpmji+n6lwfE1YohBlekvFYLOgJPU=</c2pa:manifest></metadata><rect width="512" height="512" fill="#F6F2EC"/><g transform="translate(256 256) scale(0.92)"><path d="M-41.58 -164.84 A170 170 0 0 1 41.58 -164.84 L19.57 -77.57 A80 80 0 0 0 -19.57 -77.57 Z" fill="#D3BACB" stroke="#F6F2EC" stroke-width="5"/><path d="M-61.15 -242.41 A250 250 0 0 1 61.15 -242.41 L41.58 -164.84 A170 170 0 0 0 -41.58 -164.84 Z" fill="rgb(229,214,224)" stroke="#F6F2EC" stroke-width="5"/><path d="M41.58 -164.84 A170 170 0 0 1 114.79 -125.39 L54.02 -59.01 A80 80 0 0 0 19.57 -77.57 Z" fill="#AAB3CD" stroke="#F6F2EC" stroke-width="5"/><path d="M61.15 -242.41 A250 250 0 0 1 168.81 -184.40 L114.79 -125.39 A170 170 0 0 0 41.58 -164.84 Z" fill="rgb(204,209,225)" stroke="#F6F2EC" stroke-width="5"/><path d="M114.79 -125.39 A170 170 0 0 1 160.53 -55.95 L75.54 -26.33 A80 80 0 0 0 54.02 -59.01 Z" fill="#C4C7E0" stroke="#F6F2EC" stroke-width="5"/><path d="M168.81 -184.40 A250 250 0 0 1 236.07 -82.27 L160.53 -55.95 A170 170 0 0 0 114.79 -125.39 Z" fill="rgb(220,221,236)" stroke="#F6F2EC" stroke-width="5"/><path d="M160.53 -55.95 A170 170 0 0 1 168.70 -20.95 L79.39 -9.86 A80 80 0 0 0 75.54 -26.33 Z" fill="#B3D2DC" stroke="#F6F2EC" stroke-width="5"/><path d="M236.07 -82.27 A250 250 0 0 1 248.09 -30.81 L168.70 -20.95 A170 170 0 0 0 160.53 -55.95 Z" fill="rgb(209,228,234)" stroke="#F6F2EC" stroke-width="5"/><path d="M168.70 -20.95 A170 170 0 0 1 153.72 72.60 L72.34 34.16 A80 80 0 0 0 79.39 -9.86 Z" fill="#AFC5B7" stroke="#F6F2EC" stroke-width="5"/><path d="M248.09 -30.81 A250 250 0 0 1 226.06 106.76 L153.72 72.60 A170 170 0 0 0 168.70 -20.95 Z" fill="rgb(207,220,212)" stroke="#F6F2EC" stroke-width="5"/><path d="M153.72 72.60 A170 170 0 0 1 110.29 129.37 L51.90 60.88 A80 80 0 0 0 72.34 34.16 Z" fill="#C5C8A6" stroke="#F6F2EC" stroke-width="5"/><path d="M226.06 106.76 A250 250 0 0 1 162.19 190.24 L110.29 129.37 A170 170 0 0 0 153.72 72.60 Z" fill="rgb(220,222,202)" stroke="#F6F2EC" stroke-width="5"/><path d="M110.29 129.37 A170 170 0 0 1 11.99 169.58 L5.64 79.80 A80 80 0 0 0 51.90 60.88 Z" fill="#E7D6A8" stroke="#F6F2EC" stroke-width="5"/><path d="M162.19 190.24 A250 250 0 0 1 17.63 249.38 L11.99 169.58 A170 170 0 0 0 110.29 129.37 Z" fill="rgb(241,230,203)" stroke="#F6F2EC" stroke-width="5"/><path d="M11.99 169.58 A170 170 0 0 1 -58.77 159.52 L-27.66 75.07 A80 80 0 0 0 5.64 79.80 Z" fill="#EBCB98" stroke="#F6F2EC" stroke-width="5"/><path d="M17.63 249.38 A250 250 0 0 1 -86.43 234.59 L-58.77 159.52 A170 170 0 0 0 11.99 169.58 Z" fill="rgb(243,224,193)" stroke="#F6F2EC" stroke-width="5"/><path d="M-58.77 159.52 A170 170 0 0 1 -127.40 112.56 L-59.95 52.97 A80 80 0 0 0 -27.66 75.07 Z" fill="#E6B48E" stroke="#F6F2EC" stroke-width="5"/><path d="M-86.43 234.59 A250 250 0 0 1 -187.35 165.53 L-127.40 112.56 A170 170 0 0 0 -58.77 159.52 Z" fill="rgb(240,210,187)" stroke="#F6F2EC" stroke-width="5"/><path d="M-127.40 112.56 A170 170 0 0 1 -162.41 50.24 L-76.43 23.64 A80 80 0 0 0 -59.95 52.97 Z" fill="#EABFA2" stroke="#F6F2EC" stroke-width="5"/><path d="M-187.35 165.53 A250 250 0 0 1 -238.83 73.89 L-162.41 50.24 A170 170 0 0 0 -127.40 112.56 Z" fill="rgb(242,217,199)" stroke="#F6F2EC" stroke-width="5"/><path d="M-162.41 50.24 A170 170 0 0 1 -168.70 -20.95 L-79.39 -9.86 A80 80 0 0 0 -76.43 23.64 Z" fill="#D8AAB4" stroke="#F6F2EC" stroke-width="5"/><path d="M-238.83 73.89 A250 250 0 0 1 -248.09 -30.81 L-168.70 -20.95 A170 170 0 0 0 -162.41 50.24 Z" fill="rgb(232,204,210)" stroke="#F6F2EC" stroke-width="5"/><path d="M-168.70 -20.95 A170 170 0 0 1 -123.35 -116.98 L-58.05 -55.05 A80 80 0 0 0 -79.39 -9.86 Z" fill="#DBA99C" stroke="#F6F2EC" stroke-width="5"/><path d="M-248.09 -30.81 A250 250 0 0 1 -181.39 -172.04 L-123.35 -116.98 A170 170 0 0 0 -168.70 -20.95 Z" fill="rgb(233,203,196)" stroke="#F6F2EC" stroke-width="5"/><path d="M-123.35 -116.98 A170 170 0 0 1 -41.58 -164.84 L-19.57 -77.57 A80 80 0 0 0 -58.05 -55.05 Z" fill="#C9B2CE" stroke="#F6F2EC" stroke-width="5"/><path d="M-181.39 -172.04 A250 250 0 0 1 -61.15 -242.41 L-41.58 -164.84 A170 170 0 0 0 -123.35 -116.98 Z" fill="rgb(223,209,226)" stroke="#F6F2EC" stroke-width="5"/><circle r="78" fill="#F6F2EC"/></g></svg>